<svg width="300" height="68" viewBox="0 0 300 68" fill="none" xmlns="http://www.w3.org/2000/svg">
<path d="M51.309 16.3014C50.2028 14.0115 48.5966 12.0449 46.4858 10.4018C44.3771 8.75941 41.7893 7.47798 38.7263 6.55558C35.6613 5.63434 32.1708 5.17315 28.2528 5.17315H4.12878L16.4689 18.1677H32.2276C34.6393 18.1677 36.5091 18.6788 37.8413 19.6989C39.1714 20.7203 39.8384 22.1019 39.8384 23.8427C39.8384 25.5855 39.1714 26.98 37.8413 28.0261C36.5091 29.0703 34.6393 29.5942 32.2276 29.5942H26.661L37.8615 40.9902C41.2149 40.6138 44.3373 38.8608 46.4493 37.2869C48.5829 35.693 50.2028 33.7646 51.309 31.4973C52.4121 29.2325 52.9662 26.7071 52.9662 23.9184C52.9662 21.131 52.4121 18.5913 51.309 16.3014Z" fill="#EC2B35"/>
<path d="M3.34705 29.1362H21.7667L46.982 53.7727H28.0251L3.34705 29.1362Z" fill="#EC2B35"/>
<path d="M29.6346 0.599766C27.3182 0.599766 25.0632 0.858427 22.8963 1.34877C24.7865 0.973685 26.7399 0.77695 28.7417 0.77695C45.0369 0.77695 58.2477 13.7922 58.2477 29.8445C58.2477 45.9 45.0369 58.9121 28.7417 58.9121C14.7523 58.9121 3.03825 49.3222 0 36.4556C2.76607 50.1714 14.9821 60.5067 29.6346 60.5067C46.326 60.5067 59.8571 47.0988 59.8571 30.5536C59.8571 14.0115 46.326 0.599766 29.6346 0.599766Z" fill="#EC2B35"/>
<path d="M97.5463 22.0017H73.9411C73.9411 22.0017 65.8923 23.7301 65.8923 33.3014C65.8923 33.3014 64.5518 42.7389 73.2702 44.6019H96.8753" stroke="#EC2B35" stroke-width="0.294336" stroke-miterlimit="10" stroke-linecap="round" stroke-linejoin="round"/>
<path d="M65.8923 33.3015H97.5463" stroke="#EC2B35" stroke-width="0.294336" stroke-miterlimit="10" stroke-linecap="round" stroke-linejoin="round"/>
<path d="M179.36 22.0017H155.756C155.756 22.0017 147.709 23.7301 147.709 33.3014C147.709 33.3014 146.367 42.7389 155.086 44.6019H178.691" stroke="#EC2B35" stroke-width="0.294336" stroke-miterlimit="10" stroke-linecap="round" stroke-linejoin="round"/>
<path d="M147.709 33.3015H179.36" stroke="#EC2B35" stroke-width="0.294336" stroke-miterlimit="10" stroke-linecap="round" stroke-linejoin="round"/>
<path d="M105.862 44.9977V23.9948C105.862 23.9948 106.936 19.2106 112.166 21.2047L131.748 43.8042C131.748 43.8042 135.37 45.9292 137.382 41.8085V21.7365" stroke="#EC2B35" stroke-width="0.294336" stroke-miterlimit="10" stroke-linecap="round" stroke-linejoin="round"/>
<path d="M187.811 44.7339V21.4701H214.367C214.367 21.4701 220.133 23.198 220.133 27.9842C220.133 32.7686 214.903 35.1627 212.893 35.1627H187.545" stroke="#EC2B35" stroke-width="0.294336" stroke-miterlimit="10" stroke-linecap="round" stroke-linejoin="round"/>
<path d="M212.893 35.1627L219.465 44.7339" stroke="#EC2B35" stroke-width="0.294336" stroke-miterlimit="10"/>
<path d="M254.738 21.7366H236.9C236.9 21.7366 228.853 22.9327 228.853 30.6436C228.853 38.3512 228.853 38.3512 228.853 38.3512C228.853 38.3512 231.268 44.4673 235.829 44.4673C240.387 44.4673 253.932 44.4673 253.932 44.4673C253.932 44.4673 261.443 42.2097 260.908 33.1695H247.361" stroke="#EC2B35" stroke-width="0.294336" stroke-miterlimit="10" stroke-linecap="round" stroke-linejoin="round"/>
<path d="M270.567 21.6032V30.3761C270.567 30.3761 271.236 36.2253 277.139 36.2253C283.04 36.2253 292.429 36.2253 292.429 36.2253C292.429 36.2253 297.256 35.8261 299 29.8444V21.7364" stroke="#EC2B35" stroke-width="0.294336" stroke-miterlimit="10" stroke-linecap="round" stroke-linejoin="round"/>
<path d="M284.783 36.4933V44.4673" stroke="#EC2B35" stroke-width="0.294336" stroke-miterlimit="10"/>
<path d="M297.256 67.5997H174.668V53.5054H297.256V67.5997Z" fill="#EC2B35"/>
<path d="M180.098 63.9288H181.769C183.326 63.9288 183.684 62.829 183.684 62.2921C183.684 61.9124 183.525 61.545 183.311 61.2636C182.84 60.6426 182.127 60.6297 181.584 60.6297H180.098V63.9288ZM180.098 59.2323H181.355C182.798 59.2323 183.054 58.374 183.054 57.7673C183.054 56.2858 181.614 56.2858 181.271 56.2858H180.098V59.2323ZM178.558 54.8906H181.298C184.282 54.8906 184.598 57.0479 184.598 57.7802C184.598 58.9361 184.011 59.4446 183.654 59.7551C184.096 60.0087 185.224 60.6717 185.224 62.2921C185.224 63.3641 184.624 65.324 181.712 65.324H178.558V54.8906Z" fill="white"/>
<path d="M197.757 58.8929C195.998 58.8929 195.146 60.398 195.146 61.5786C195.146 62.9359 196.232 64.2251 197.744 64.2251C199.243 64.2251 200.396 63.0187 200.396 61.5786C200.396 59.9776 199.228 58.8929 197.757 58.8929ZM200.367 65.324V64.1572H200.34C199.792 65.0802 198.788 65.5136 197.757 65.5136C195.188 65.5136 193.717 63.5743 193.717 61.5935C193.717 59.7616 195.022 57.6035 197.757 57.6035C198.817 57.6035 199.792 58.0375 200.34 58.8655H200.367V57.808H201.797V65.324H200.367Z" fill="white"/>
<path d="M212.446 65.324H211.015V59.0965H209.986V57.808H211.015V55.2832H212.446V57.808H213.697V59.0965H212.446V65.324Z" fill="white"/>
<path d="M223.398 65.324H221.968V59.0965H220.939V57.808H221.968V55.2832H223.398V57.808H224.65V59.0965H223.398V65.324Z" fill="white"/>
<path d="M238.718 61.0902C238.649 59.9905 237.633 58.8929 236.26 58.8929C234.887 58.8929 233.867 59.9905 233.799 61.0902H238.718ZM233.799 62.1757C234.156 63.6279 235.339 64.2251 236.3 64.2251C237.359 64.2251 238.128 63.615 238.472 62.9637H239.901C239.172 64.9035 237.428 65.5136 236.245 65.5136C234.088 65.5136 232.37 63.6829 232.37 61.5514C232.37 59.3002 234.128 57.6035 236.273 57.6035C238.335 57.6035 240.135 59.2584 240.148 61.4577C240.148 61.7015 240.12 62.0819 240.108 62.1757H233.799Z" fill="white"/>
<path d="M248.723 65.324V57.808H250.056V58.4853H250.083C250.689 57.6442 251.665 57.6164 252.021 57.6035V59.0565C251.802 59.0565 251.333 59.1495 250.99 59.3262C250.537 59.57 250.151 60.1413 250.151 61.2131V65.324H248.723Z" fill="white"/>
<path d="M261.969 65.324H260.541V57.808H261.969V65.324ZM261.969 56.9393H260.541V55.2832H261.969V56.9393Z" fill="white"/>
<path d="M276.92 61.0902C276.851 59.9905 275.834 58.8929 274.46 58.8929C273.087 58.8929 272.068 59.9905 271.999 61.0902H276.92ZM271.999 62.1757C272.357 63.6279 273.54 64.2251 274.5 64.2251C275.56 64.2251 276.328 63.615 276.673 62.9637H278.103C277.373 64.9035 275.628 65.5136 274.445 65.5136C272.288 65.5136 270.571 63.6829 270.571 61.5514C270.571 59.3002 272.33 57.6035 274.474 57.6035C276.536 57.6035 278.335 59.2584 278.348 61.4577C278.348 61.7015 278.322 62.0819 278.308 62.1757H271.999Z" fill="white"/>
<path d="M289.919 59.8017C289.837 59.1903 289.466 58.8929 288.943 58.8929C288.422 58.8929 288.051 59.2174 288.051 59.6935C288.051 60.3172 288.601 60.4808 289.232 60.6704C289.822 60.8463 291.528 61.3217 291.528 63.1117C291.528 64.443 290.592 65.5136 288.972 65.5136C288.009 65.5136 286.277 64.9166 286.277 62.8549H287.707C287.762 63.6958 288.203 64.2251 288.998 64.2251C289.645 64.2251 290.098 63.8318 290.098 63.1945C290.098 62.5295 289.508 62.2986 288.766 62.0398C287.939 61.7424 286.621 61.3756 286.621 59.7745C286.621 58.6612 287.57 57.6035 289.012 57.6035C289.879 57.6035 291.307 58.1328 291.348 59.8017H289.919Z" fill="white"/>
</svg>
